HIERARCHY
ROOT Hips
{
	OFFSET 0.00000 0.00000 0.00000
	CHANNELS 6 Xposition Yposition Zposition Zrotation Yrotation Xrotation 
	JOINT LHipJoint
	{
		OFFSET 0 0 0
		CHANNELS 3 Zrotation Yrotation Xrotation
		JOINT LeftUpLeg
		{
			OFFSET 1.57093 -1.69714 0.87455
			CHANNELS 3 Zrotation Yrotation Xrotation
			JOINT LeftLeg
			{
				OFFSET 2.48056 -6.81529 0.00000
				CHANNELS 3 Zrotation Yrotation Xrotation
				JOINT LeftFoot
				{
					OFFSET 2.62558 -7.21374 0.00000
					CHANNELS 3 Zrotation Yrotation Xrotation
					JOINT LeftToeBase
					{
						OFFSET 0.17911 -0.49210 2.16707
						CHANNELS 3 Zrotation Yrotation Xrotation
						End Site
						{
							OFFSET 0.00000 -0.00000 1.11848
						}
					}
				}
			}
		}
	}
	JOINT RHipJoint
	{
		OFFSET 0 0 0
		CHANNELS 3 Zrotation Yrotation Xrotation
		JOINT RightUpLeg
		{
			OFFSET -1.69739 -1.69715 0.87455
			CHANNELS 3 Zrotation Yrotation Xrotation
			JOINT RightLeg
			{
				OFFSET -2.33658 -6.41972 0.00000
				CHANNELS 3 Zrotation Yrotation Xrotation
				JOINT RightFoot
				{
					OFFSET -2.60856 -7.16696 0.00000
					CHANNELS 3 Zrotation Yrotation Xrotation
					JOINT RightToeBase
					{
						OFFSET -0.20854 -0.57296 2.11053
						CHANNELS 3 Zrotation Yrotation Xrotation
						End Site
						{
							OFFSET -0.00000 -0.00000 1.09848
						}
					}
				}
			}
		}
	}
	JOINT LowerBack
	{
		OFFSET 0 0 0
		CHANNELS 3 Zrotation Yrotation Xrotation
		JOINT Spine
		{
			OFFSET 0.02563 2.15732 -0.03270
			CHANNELS 3 Zrotation Yrotation Xrotation
			JOINT Spine1
			{
				OFFSET 0.00281 2.14662 0.09285
				CHANNELS 3 Zrotation Yrotation Xrotation
				JOINT Neck
				{
					OFFSET 0 0 0
					CHANNELS 3 Zrotation Yrotation Xrotation
					JOINT Neck1
					{
						OFFSET -0.04440 1.68397 0.17601
						CHANNELS 3 Zrotation Yrotation Xrotation
						JOINT Head
						{
							OFFSET 0.06040 1.66995 -0.35615
							CHANNELS 3 Zrotation Yrotation Xrotation
							End Site
							{
								OFFSET 0.02405 1.72189 -0.14044
							}
						}
					}
				}
				JOINT LeftShoulder
				{
					OFFSET 0 0 0
					CHANNELS 3 Zrotation Yrotation Xrotation
					JOINT LeftArm
					{
						OFFSET 2.98955 1.90907 -0.21660
						CHANNELS 3 Zrotation Yrotation Xrotation
						JOINT LeftForeArm
						{
							OFFSET 4.91377 -0.00000 0.00000
							CHANNELS 3 Zrotation Yrotation Xrotation
							JOINT LeftHand
							{
								OFFSET 3.00291 -0.00000 -0.00000
								CHANNELS 3 Zrotation Yrotation Xrotation
								JOINT LeftFingerBase
								{
									OFFSET 0 0 0
									CHANNELS 3 Zrotation Yrotation Xrotation
									JOINT LeftHandIndex1
									{
										OFFSET 0.45092 -0.00000 -0.00000
										CHANNELS 3 Zrotation Yrotation Xrotation
										End Site
										{
											OFFSET 0.36355 -0.00000 -0.00000
										}
									}
								}
								JOINT LThumb
								{
									OFFSET 0 0 0
									CHANNELS 3 Zrotation Yrotation Xrotation
									End Site
									{
										OFFSET 0.36910 -0.00000 0.36910
									}
								}
							}
						}
					}
				}
				JOINT RightShoulder
				{
					OFFSET 0 0 0
					CHANNELS 3 Zrotation Yrotation Xrotation
					JOINT RightArm
					{
						OFFSET -2.80452 1.90886 -0.21152
						CHANNELS 3 Zrotation Yrotation Xrotation
						JOINT RightForeArm
						{
							OFFSET -4.86725 -0.00000 0.00000
							CHANNELS 3 Zrotation Yrotation Xrotation
							JOINT RightHand
							{
								OFFSET -3.17144 -0.00000 -0.00000
								CHANNELS 3 Zrotation Yrotation Xrotation
								JOINT RightFingerBase
								{
									OFFSET 0 0 0
									CHANNELS 3 Zrotation Yrotation Xrotation
									JOINT RightHandIndex1
									{
										OFFSET -0.41937 -0.00000 -0.00000
										CHANNELS 3 Zrotation Yrotation Xrotation
										End Site
										{
											OFFSET -0.33810 -0.00000 -0.00000
										}
									}
								}
								JOINT RThumb
								{
									OFFSET 0 0 0
									CHANNELS 3 Zrotation Yrotation Xrotation
									End Site
									{
										OFFSET -0.34327 -0.00000 0.34327
									}
								}
							}
						}
					}
				}
			}
		}
	}
}
MOTION
Frames: 6
Frame Time: 0.0155039
0.00 0.00 0.00 0 0 0 0 0 0 -21 0 0 0 0 0 0 0 0 0 0 0 0 0 0 21 0 0 0 0 0 0 0 0 0 0 0 0 0 0 0 0 0 0 0 0 0 0 -16 0 0 21 0 0 11 0 0 0 -8 0 0 0 0 0 0 0 0 0 0 0 0 0 0 0 0 0 0 0 0 8 0 0 0 0 0 0 0 0 0 0 0 0 0 0 0 0 0
0.00 0.00 0.00 1.3592 -17.3250 104.0450 0.0000 0.0000 0.0000 -22.0371 -9.0531 -57.6006 8.6845 16.6003 54.9924 1.4015 0.8774 22.1224 2.3691 9.5960 27.6780 0.0000 0.0000 0.0000 14.1215 18.0128 -55.6562 -7.9191 -16.0595 52.2709 -1.6078 -6.5242 22.7443 -1.2036 -6.9604 19.5983 15.5254 6.7120 -19.2805 -12.3318 7.0024 -3.5456 -20.8877 4.5146 10.5006 0.4626 -1.5739 -17.7045 11.6097 -7.9757 44.7199 4.3452 -1.4720 22.5951 -0.0000 -0.0000 0.0000 109.4321 -22.1999 -94.4974 9.1732 -15.4360 -1.2458 -0.0000 0.0000 -11.4550 32.4414 -6.2223 -3.9411 -7.1250 0.0000 -0.0000 4.1861 22.6244 -2.2595 -0.0000 -0.0000 0.0000 -75.6150 22.5111 -82.0406 -13.2255 21.6167 -2.5357 0.0000 0.0000 5.7372 -15.7937 -20.9858 5.7843 7.1250 -0.0000 -0.0000 12.9429 -51.2584 -2.0240
0.00 0.00 0.00 -0.3650 -17.9422 105.3530 0.0000 0.0000 0.0000 -20.1970 -13.0045 -54.0764 4.8895 13.2583 40.3431 1.9566 3.7837 25.5345 5.1264 13.5247 41.3659 0.0000 0.0000 0.0000 15.3992 18.0918 -49.7536 -3.6190 -11.6353 34.4538 -1.2358 -6.9920 19.8626 -1.0832 -6.6149 18.5794 14.9240 6.6957 -20.6190 -12.3651 6.9267 -3.6918 -20.4653 4.4556 10.9274 0.8120 -1.4653 -18.3304 11.0304 -7.9383 45.7289 4.0968 -1.4748 23.6956 0.0000 -0.0000 0.0000 109.3055 -22.8274 -92.4306 9.2821 -15.6088 -1.2749 -0.0000 0.0000 -10.4409 29.4527 -7.0191 -3.9474 -7.1250 0.0000 -0.0000 1.9474 21.9334 -1.0796 0.0000 -0.0000 0.0000 -74.6546 23.1776 -82.7627 -14.0038 22.7402 -2.8296 0.0000 -0.0000 -1.2556 -15.4434 -21.8818 5.8785 7.1250 -0.0000 -0.0000 13.6506 -52.0882 -2.4192
0.00 0.00 0.00 -0.5042 -18.5114 100.7850 0.0000 0.0000 0.0000 -21.7329 -8.6347 -57.1880 10.2498 17.5480 60.3201 2.4638 3.2073 28.9107 5.0411 13.4299 40.9999 0.0000 0.0000 0.0000 14.9045 15.9431 -59.6378 -11.0791 -17.9736 63.0381 -1.9331 -9.0473 24.9416 -2.0836 -9.0380 25.9143 13.7902 5.7689 -18.6236 -11.2771 6.0139 -2.5057 -18.8640 3.9374 10.4789 -0.9346 -1.6121 -20.3904 10.7224 -7.3036 44.7830 4.3525 -1.5423 23.5857 0.0000 0.0000 0.0000 101.2704 -24.6473 -84.6058 12.8643 -21.0880 -2.4042 -0.0000 0.0000 -12.0655 35.1049 -8.3365 -5.8193 -7.1250 0.0000 -0.0000 5.8832 19.8518 -3.5543 0.0000 0.0000 0.0000 -69.3441 22.2168 -75.9126 -20.5996 31.3579 -5.8402 0.0000 -0.0000 -29.7533 -12.5547 -23.8120 5.1377 7.1250 -0.0000 -0.0000 17.3803 -53.4610 -3.7042
0.00 0.00 0.00 -2.4760 -18.8579 103.3050 0.0000 0.0000 0.0000 -21.8075 -10.8100 -52.4330 7.3800 15.6437 50.2974 1.7774 6.3570 23.9681 5.5830 14.0117 43.2842 0.0000 0.0000 0.0000 14.2027 18.3553 -53.0095 -7.0914 -15.4084 49.2191 -2.2848 -7.8245 27.2088 -1.7270 -8.2727 23.5454 14.6458 5.8777 -21.1861 -10.6292 5.5695 -2.8895 -18.5536 3.7126 11.1388 -2.2689 -0.9279 -23.9618 12.5710 -6.2125 40.9602 5.4380 -1.0508 21.2853 0.0000 0.0000 0.0000 99.0463 -27.6715 -102.0481 11.4493 -18.9737 -1.9195 -0.0000 0.0000 -6.2205 37.3698 -17.6700 -13.0515 -7.1250 0.0000 -0.0000 6.0378 8.2358 -5.1400 0.0000 0.0000 0.0000 -64.2566 25.1622 -77.9407 -21.3807 32.2700 -6.2519 0.0000 -0.0000 -45.4993 -7.8719 -8.5149 1.1728 7.1250 -0.0000 -0.0000 16.2225 -38.0914 2.8497
0.00 0.00 0.00 -1.9229 -18.3857 100.2420 0.0000 0.0000 0.0000 -18.1506 -14.4880 -56.6656 7.2149 15.5102 49.6824 1.5210 3.5838 22.4294 4.2347 12.4663 37.4021 0.0000 0.0000 0.0000 16.7848 16.7404 -54.3700 -6.6048 -14.9898 47.3632 -0.9835 -1.5671 18.2831 -0.0440 1.3535 -3.7220 12.2326 5.9240 -21.7331 -9.3009 6.0148 -2.0874 -15.2396 3.8424 12.0264 -5.3479 -3.0612 -25.9696 14.3384 -7.0151 28.2561 5.4923 -1.5405 15.0284 0.0000 0.0000 0.0000 98.1927 -36.9323 -123.4989 7.5300 -12.7882 -0.8450 -0.0000 -0.0000 16.8577 39.7159 -22.3502 -17.5303 -7.1250 0.0000 -0.0000 6.5856 2.0169 -6.3926 0.0000 0.0000 0.0000 -55.5389 25.7326 -57.7413 -15.8545 25.3230 -3.5835 0.0000 0.0000 11.0054 -23.1410 5.4001 -2.3033 7.1250 -0.0000 -0.0000 2.6425 -24.1111 1.3338
